# xmcd
#
# Track frame offsets:
#	150
#	13755
#	32652
#	49892
#	65155
#	84299
#	102238
#	115996
#	133396
#	149676
#	166275
#
# Disc length: 2461 seconds
#
# Revision: 0
# Processed by: cddbd v1.5.2PL0 Copyright (c) Steve Scherf et al.
# Submitted via: EZCDAudioConverter 1.0.6.1
#
DISCID=a0099b0b
DTITLE=Ruben Moreno - Por Ti Volare
DYEAR=2011
DGENRE=blues
TTITLE0=Hey gal
TTITLE1=Almost lost my mind
TTITLE2=Scream
TTITLE3=Memories of you
TTITLE4=Good man
TTITLE5=Tears in my beer
TTITLE6=Waistin' my time
TTITLE7=Send me some login'
TTITLE8=You and I
TTITLE9=Songwriter
TTITLE10=Jet plane
EXTD=
EXTT0=
EXTT1=
EXTT2=
EXTT3=
EXTT4=
EXTT5=
EXTT6=
EXTT7=
EXTT8=
EXTT9=
EXTT10=
PLAYORDER=
